<?xml version="1.0" encoding="UTF-8" standalone="no"?>
<svg
   clip-rule="evenodd"
   fill-rule="evenodd"
   stroke-linejoin="round"
   stroke-miterlimit="2"
   viewBox="0 0 14.008081 17.999001"
   version="1.1"
   id="svg1"
   sodipodi:docname="uparrow.svg"
   inkscape:version="1.3.2 (091e20ef0f, 2023-11-25, custom)"
   width="14.008081"
   height="17.999001"
   xmlns:inkscape="http://www.inkscape.org/namespaces/inkscape"
   xmlns:sodipodi="http://sodipodi.sourceforge.net/DTD/sodipodi-0.dtd"
   xmlns="http://www.w3.org/2000/svg"
   xmlns:svg="http://www.w3.org/2000/svg">
  <defs
     id="defs1" />
  <sodipodi:namedview
     id="namedview1"
     pagecolor="#ffffff"
     bordercolor="#000000"
     borderopacity="0.25"
     inkscape:showpageshadow="2"
     inkscape:pageopacity="0.0"
     inkscape:pagecheckerboard="0"
     inkscape:deskcolor="#d1d1d1"
     inkscape:zoom="16.479167"
     inkscape:cx="-2.7003793"
     inkscape:cy="2.3969659"
     inkscape:window-width="1920"
     inkscape:window-height="1015"
     inkscape:window-x="0"
     inkscape:window-y="0"
     inkscape:window-maximized="1"
     inkscape:current-layer="svg1" />
  <path
     d="m 13.793041,6.475 c 0,0 -4.5050005,-4.502 -6.2590005,-6.255 -0.147,-0.146 -0.339,-0.22 -0.53,-0.22 -0.192,0 -0.384,0.074 -0.531,0.22 -1.753,1.753 -6.25599996,6.252 -6.25599996,6.252 -0.147,0.147 -0.219,0.339 -0.217000001927,0.532 C 0.00104054,7.194 0.07504054,7.384 0.22104054,7.529 c 0.292,0.293 0.766,0.295 1.05599996,0.004 l 4.977,-4.976 v 14.692 c 0,0.414 0.336,0.75 0.75,0.75 0.413,0 0.75,-0.336 0.75,-0.75 V 2.557 l 4.9780005,4.978 c 0.289,0.29 0.762,0.287 1.055,-0.006 0.145,-0.145 0.219,-0.335 0.221,-0.525 0.002,-0.192 -0.07,-0.384 -0.215,-0.529 z"
     fill-rule="nonzero"
     id="path1"
     style="fill:#ffffff;fill-opacity:1" />
</svg>
