<?xml version="1.0" encoding="UTF-8" standalone="no"?>
<!-- Created with Inkscape (http://www.inkscape.org/) -->

<svg
   width="187.10805mm"
   height="108.46461mm"
   viewBox="0 0 187.10804 108.46459"
   version="1.1"
   id="svg1"
   inkscape:version="1.3.2 (091e20ef0f, 2023-11-25, custom)"
   sodipodi:docname="footer-bg.svg"
   xmlns:inkscape="http://www.inkscape.org/namespaces/inkscape"
   xmlns:sodipodi="http://sodipodi.sourceforge.net/DTD/sodipodi-0.dtd"
   xmlns="http://www.w3.org/2000/svg"
   xmlns:svg="http://www.w3.org/2000/svg">
  <sodipodi:namedview
     id="namedview1"
     pagecolor="#ffffff"
     bordercolor="#000000"
     borderopacity="0.25"
     inkscape:showpageshadow="false"
     inkscape:pageopacity="0.0"
     inkscape:pagecheckerboard="0"
     inkscape:deskcolor="#d1d1d1"
     inkscape:document-units="mm"
     showborder="false"
     inkscape:clip-to-page="false"
     inkscape:zoom="0.99654638"
     inkscape:cx="280.97037"
     inkscape:cy="183.13247"
     inkscape:window-width="1920"
     inkscape:window-height="1015"
     inkscape:window-x="0"
     inkscape:window-y="0"
     inkscape:window-maximized="1"
     inkscape:current-layer="layer1" />
  <defs
     id="defs1" />
  <g
     inkscape:label="Layer 1"
     inkscape:groupmode="layer"
     id="layer1"
     transform="translate(4.5389228,4.7333109)">
    <path
       id="rect2"
       style="fill:#e8eefc;stroke:#fffff1;stroke-width:0"
       d="M 182.46112,43.652227 H -1.6721678 l -0.56155,-42.1019259 c -2.09139,-2.550312 17.5251598,10.6388239 31.9012598,14.6324849 10.28658,2.857594 41.84365,6.516006 67.831204,3.710927 9.347354,-1.008947 36.234804,-0.938257 43.864424,-0.492929 3.97059,0.231758 8.54697,-0.08134 26.12735,4.235411 4.80651,1.180207 14.55129,12.622228 14.55129,12.622228 z"
       sodipodi:nodetypes="cccsssscc" />
    <path
       id="rect1"
       style="fill:#306ee6;fill-opacity:1;stroke:#272a31;stroke-width:0;stroke-dasharray:none"
       d="m 182.56912,103.83991 -187.2160378,0.0384 0.006,-108.6116609 C 6.4308322,15.501042 16.591862,18.693678 34.900872,25.595327 c 10.07031,3.796037 44.291281,1.843038 60.317425,-0.03809 17.277773,-2.028037 32.535783,-2.352484 46.734193,-1.163226 14.72461,1.233331 40.65812,5.893796 40.55669,19.535786 z"
       sodipodi:nodetypes="cccssscc" />
  </g>
</svg>
