<?xml version="1.0" encoding="UTF-8" standalone="no"?>
<!-- Created with Inkscape (http://www.inkscape.org/) -->

<svg
   width="183.82924mm"
   height="104.45001mm"
   viewBox="0 0 183.82924 104.45"
   version="1.1"
   id="svg1"
   inkscape:version="1.3.2 (091e20ef0f, 2023-11-25, custom)"
   sodipodi:docname="main-bg.svg"
   xmlns:inkscape="http://www.inkscape.org/namespaces/inkscape"
   xmlns:sodipodi="http://sodipodi.sourceforge.net/DTD/sodipodi-0.dtd"
   xmlns="http://www.w3.org/2000/svg"
   xmlns:svg="http://www.w3.org/2000/svg">
  <sodipodi:namedview
     id="namedview1"
     pagecolor="#ffffff"
     bordercolor="#000000"
     borderopacity="0.25"
     inkscape:showpageshadow="false"
     inkscape:pageopacity="0.0"
     inkscape:pagecheckerboard="0"
     inkscape:deskcolor="#d1d1d1"
     inkscape:document-units="mm"
     showborder="false"
     inkscape:clip-to-page="false"
     inkscape:zoom="1.4093294"
     inkscape:cx="467.95306"
     inkscape:cy="223.86534"
     inkscape:window-width="1920"
     inkscape:window-height="1015"
     inkscape:window-x="0"
     inkscape:window-y="0"
     inkscape:window-maximized="1"
     inkscape:current-layer="layer1" />
  <defs
     id="defs1" />
  <g
     inkscape:label="Layer 1"
     inkscape:groupmode="layer"
     id="layer1"
     transform="translate(2.1515528,3.0880507)">
    <path
       id="rect2"
       style="fill:#e8eefc;stroke:#fffff1;stroke-width:0"
       d="M -2.5930281,32.878262 H 181.54026 l 0.15072,22.620109 c 0,0 -12.43284,-9.038922 -32.05963,-13.200486 C 124.31125,36.929141 88.339747,36.962497 65.486283,46.550296 57.571334,49.870884 35.140445,56.576977 27.510826,56.14606 23.540237,55.921804 16.002768,54.7298 12.377574,52.246398 11.355211,51.546038 -2.1737164,40.032736 -2.1737164,40.032736 Z"
       sodipodi:nodetypes="cccsssscc" />
    <path
       id="rect1"
       style="fill:#306ee6;fill-opacity:1;stroke:#272a31;stroke-width:0;stroke-dasharray:none"
       d="M -2.6963341,-3.6747513 181.62164,-3.3416486 181.59199,51.343783 C 170.52032,37.083343 143.78714,35.710591 126.33722,36.079489 115.21915,36.31453 100.57304,39.535212 85.594947,43.004927 67.842253,47.117385 49.623184,51.579685 36.259272,51.835279 25.768536,52.035921 -2.718823,47.93816 -2.6173909,38.323776 Z"
       sodipodi:nodetypes="cccssscc" />
  </g>
</svg>
