<?xml version="1.0" encoding="UTF-8" standalone="no"?>
<!-- Created with Inkscape (http://www.inkscape.org/) -->

<svg
   width="184.63217mm"
   height="119.44704mm"
   viewBox="0 0 184.63217 119.44702"
   version="1.1"
   id="svg1"
   inkscape:version="1.3.2 (091e20ef0f, 2023-11-25, custom)"
   sodipodi:docname="main-bg.svg"
   xmlns:inkscape="http://www.inkscape.org/namespaces/inkscape"
   xmlns:sodipodi="http://sodipodi.sourceforge.net/DTD/sodipodi-0.dtd"
   xmlns="http://www.w3.org/2000/svg"
   xmlns:svg="http://www.w3.org/2000/svg">
  <sodipodi:namedview
     id="namedview1"
     pagecolor="#ffffff"
     bordercolor="#000000"
     borderopacity="0.25"
     inkscape:showpageshadow="false"
     inkscape:pageopacity="0.0"
     inkscape:pagecheckerboard="0"
     inkscape:deskcolor="#d1d1d1"
     inkscape:document-units="mm"
     showborder="false"
     inkscape:clip-to-page="false"
     inkscape:zoom="1.4093294"
     inkscape:cx="274.95346"
     inkscape:cy="263.60055"
     inkscape:window-width="1920"
     inkscape:window-height="1015"
     inkscape:window-x="0"
     inkscape:window-y="0"
     inkscape:window-maximized="1"
     inkscape:current-layer="layer1" />
  <defs
     id="defs1" />
  <g
     inkscape:label="Layer 1"
     inkscape:groupmode="layer"
     id="layer1"
     transform="translate(2.6963341,3.6747513)">
    <path
       id="rect2"
       style="fill:#e8eefc;stroke:#fffff1;stroke-width:0"
       d="M -2.5930281,41.256578 H 181.54026 l 0.13535,74.322972 C 183.767,119.3927 150.9209,65.427087 142.10177,59.86957 132.69621,53.94251 98.095851,44.859205 75.242387,59.674147 67.327438,64.805076 35.140445,77.875523 27.510826,77.209676 23.540237,76.863158 16.002768,75.021289 12.377574,71.183968 11.355211,70.101781 -2.1737164,52.311578 -2.1737164,52.311578 Z"
       sodipodi:nodetypes="cccsssscc" />
    <path
       id="rect1"
       style="fill:#306ee6;fill-opacity:1;stroke:#272a31;stroke-width:0;stroke-dasharray:none"
       d="M -4.0920382,-4.2871368 182.29654,-3.7109964 181.93583,96.76576 C 170.86419,77.915154 146.51194,49.86207 126.33722,48.875626 115.22427,48.332257 100.57304,53.44368 85.594947,58.030231 67.842253,63.466411 49.623184,69.365041 36.259272,69.702906 25.768536,69.968131 -4.215987,64.251221 -4.1145549,51.542149 Z"
       sodipodi:nodetypes="cccssscc" />
  </g>
</svg>
